<?xml version="1.0" encoding="UTF-8" standalone="no"?>
<!-- Created with Inkscape (http://www.inkscape.org/) -->

<svg
   width="210mm"
   height="297mm"
   viewBox="0 0 210 297"
   version="1.1"
   id="svg5"
   inkscape:version="1.2.1 (9c6d41e410, 2022-07-14)"
   sodipodi:docname="1.svg"
   xmlns:inkscape="http://www.inkscape.org/namespaces/inkscape"
   xmlns:sodipodi="http://sodipodi.sourceforge.net/DTD/sodipodi-0.dtd"
   xmlns="http://www.w3.org/2000/svg"
   xmlns:svg="http://www.w3.org/2000/svg">
  <sodipodi:namedview
     id="namedview7"
     pagecolor="#ffffff"
     bordercolor="#000000"
     borderopacity="0.25"
     inkscape:showpageshadow="2"
     inkscape:pageopacity="0.0"
     inkscape:pagecheckerboard="0"
     inkscape:deskcolor="#d1d1d1"
     inkscape:document-units="mm"
     showgrid="false"
     inkscape:zoom="0.35590942"
     inkscape:cx="453.76714"
     inkscape:cy="573.17954"
     inkscape:window-width="1366"
     inkscape:window-height="745"
     inkscape:window-x="-8"
     inkscape:window-y="-8"
     inkscape:window-maximized="1"
     inkscape:current-layer="layer1" />
  <defs
     id="defs2" />
  <g
     inkscape:label="Слой 1"
     inkscape:groupmode="layer"
     id="layer1">
    <rect
       style="fill:#00ffff;stroke-width:0.264583"
       id="rect215"
       width="100.92743"
       height="46.258408"
       x="56.246017"
       y="37.847786" />
    <path
       style="fill:#000080;stroke-width:0.402745"
       id="path373"
       sodipodi:type="arc"
       sodipodi:cx="86.865921"
       sodipodi:cy="61.896904"
       sodipodi:rx="16.426992"
       sodipodi:ry="15.112832"
       sodipodi:start="0"
       sodipodi:end="6.2824551"
       sodipodi:arc-type="slice"
       d="M 103.29291,61.896904 A 16.426992,15.112832 0 0 1 86.86892,77.009736 16.426992,15.112832 0 0 1 70.43893,61.902422 16.426992,15.112832 0 0 1 86.856925,46.784074 16.426992,15.112832 0 0 1 103.29291,61.885868 l -16.426989,0.01104 z" />
    <path
       style="fill:#000080;stroke-width:0.402745"
       id="path373-6"
       sodipodi:type="arc"
       sodipodi:cx="125.89646"
       sodipodi:cy="62.028316"
       sodipodi:rx="16.426992"
       sodipodi:ry="15.112832"
       sodipodi:start="0"
       sodipodi:end="6.2824551"
       sodipodi:arc-type="slice"
       d="m 142.32345,62.028316 a 16.426992,15.112832 0 0 1 -16.42399,15.112832 16.426992,15.112832 0 0 1 -16.42999,-15.107314 16.426992,15.112832 0 0 1 16.418,-15.118347 16.426992,15.112832 0 0 1 16.43598,15.101794 l -16.42699,0.01103 z" />
    <path
       style="fill:#f9f9f9;stroke-width:0.264583"
       id="path557-1"
       sodipodi:type="arc"
       sodipodi:cx="125.10796"
       sodipodi:cy="63.079647"
       sodipodi:rx="3.0225663"
       sodipodi:ry="2.8911505"
       sodipodi:start="0"
       sodipodi:end="6.2824551"
       sodipodi:arc-type="slice"
       d="m 128.13053,63.079647 a 3.0225663,2.8911505 0 0 1 -3.02201,2.89115 3.0225663,2.8911505 0 0 1 -3.02312,-2.890094 3.0225663,2.8911505 0 0 1 3.02091,-2.892206 3.0225663,2.8911505 0 0 1 3.02422,2.889039 l -3.02257,0.0021 z" />
    <path
       style="fill:#f9f9f9;stroke-width:0.264583"
       id="path557"
       sodipodi:type="arc"
       sodipodi:cx="86.603096"
       sodipodi:cy="62.553982"
       sodipodi:rx="3.0225663"
       sodipodi:ry="2.8911505"
       sodipodi:start="0"
       sodipodi:end="6.2824551"
       sodipodi:arc-type="slice"
       d="m 89.625662,62.553982 a 3.0225663,2.8911505 0 0 1 -3.022014,2.89115 3.0225663,2.8911505 0 0 1 -3.023118,-2.890095 3.0225663,2.8911505 0 0 1 3.020911,-2.892205 3.0225663,2.8911505 0 0 1 3.024221,2.889039 l -3.022566,0.0021 z" />
    <path
       style="fill:#ff00ff;stroke-width:0.264583"
       d="m 67.81062,120.90265 c 1.051327,9.98761 0.262832,13.66726 4.205309,14.71859 3.942476,1.05132 6.045133,0.26283 7.359292,-3.15398 C 80.68938,129.05044 79.900885,118.8 79.900885,118.8 Z"
       id="path687" />
    <path
       style="fill:#ff00ff;stroke-width:0.264583"
       d="m 78.586726,133.51858 c 0.262832,-2.89115 2.102654,-5.7823 3.416813,-5.25664 1.314159,0.52567 1.839823,5.78231 1.839823,5.78231 z"
       id="path743" />
    <path
       style="fill:#ff00ff;stroke-width:0.264583"
       d="m 68.861947,131.1531 c -1.839825,-3.15399 -6.833629,-1.83983 -6.045134,0 0.788496,1.83982 2.628318,3.15398 2.628318,3.15398 z"
       id="path745" />
    <path
       style="fill:#800080;stroke-width:0.264583"
       id="path799"
       sodipodi:type="arc"
       sodipodi:cx="78.323891"
       sodipodi:cy="151.12833"
       sodipodi:rx="8.4106197"
       sodipodi:ry="7.8849554"
       sodipodi:start="0"
       sodipodi:end="6.2824551"
       sodipodi:arc-type="slice"
       d="m 86.73451,151.12833 a 8.4106197,7.8849554 0 0 1 -8.409084,7.88495 8.4106197,7.8849554 0 0 1 -8.412154,-7.88207 8.4106197,7.8849554 0 0 1 8.406013,-7.88784 8.4106197,7.8849554 0 0 1 8.415223,7.8792 l -8.410617,0.006 z" />
    <path
       style="fill:#ffffff;stroke-width:0.264583"
       id="path853"
       sodipodi:type="arc"
       sodipodi:cx="78.849556"
       sodipodi:cy="151.65399"
       sodipodi:rx="3.679646"
       sodipodi:ry="3.4168141"
       sodipodi:start="0"
       sodipodi:end="6.2824551"
       sodipodi:arc-type="slice"
       d="m 82.529202,151.65399 a 3.679646,3.4168141 0 0 1 -3.678974,3.41682 3.679646,3.4168141 0 0 1 -3.680318,-3.41557 3.679646,3.4168141 0 0 1 3.677631,-3.41806 3.679646,3.4168141 0 0 1 3.68166,3.41432 l -3.679645,0.002 z" />
    <rect
       style="fill:#ffffff;stroke-width:0.245275"
       id="rect959"
       width="3.8110619"
       height="7.2278757"
       x="77.00972"
       y="142.19203" />
    <text
       xml:space="preserve"
       style="font-size:9.87777px;text-align:center;text-anchor:middle;fill:#ff0000;stroke-width:0.264583"
       x="112.25352"
       y="110.02332"
       id="text1015"><tspan
         sodipodi:role="line"
         id="tspan1013"
         style="fill:#ff0000;stroke-width:0.264583"
         x="112.25352"
         y="110.02332">Unreal Engineer</tspan></text>
    <text
       xml:space="preserve"
       style="font-size:9.87777px;text-align:center;text-anchor:middle;fill:#ff0000;stroke-width:0.264583"
       x="111.51011"
       y="126.37813"
       id="text1121"><tspan
         sodipodi:role="line"
         id="tspan1119"
         style="stroke-width:0.264583"
         x="111.51011"
         y="126.37813">Good motor</tspan></text>
    <rect
       style="fill:#008000;stroke-width:0.264583"
       id="rect1175"
       width="51.666351"
       height="47.205948"
       x="40.143642"
       y="204.80692" />
    <rect
       style="fill:#4d4d4d;stroke-width:0.264583"
       id="rect1229"
       width="11.522712"
       height="35.311535"
       x="42.745541"
       y="213.91357" />
    <rect
       style="fill:#666666;stroke-width:0.264583"
       id="rect1283"
       width="22.859571"
       height="10.035911"
       x="63.560764"
       y="213.72771" />
    <rect
       style="fill:#666666;stroke-width:0.264583"
       id="rect1337"
       width="21.001072"
       height="7.4340076"
       x="61.144714"
       y="239.5609" />
    <rect
       style="fill:#b3b3b3;stroke-width:0.264583"
       id="rect1339"
       width="7.6198578"
       height="9.8500595"
       x="81.030678"
       y="226.55138" />
    <rect
       style="fill:#808000;stroke-width:0.264583"
       id="rect1393"
       width="14.310465"
       height="11.708562"
       x="51.852203"
       y="213.35602" />
    <rect
       style="fill:#d45500;stroke-width:0.264583"
       id="rect1447"
       width="12.266112"
       height="9.6642094"
       x="52.038055"
       y="239.5609" />
    <rect
       style="fill:#803300;stroke-width:0.264583"
       id="rect1449"
       width="9.1066589"
       height="9.8500595"
       x="77.685379"
       y="236.40144" />
    <rect
       style="fill:#552200;stroke-width:0.264583"
       id="rect1503"
       width="9.2925091"
       height="8.7349586"
       x="79.17218"
       y="219.11737" />
    <rect
       style="fill:#000080;stroke-width:0.264583"
       id="rect1557"
       width="26.546019"
       height="37.059292"
       x="115.64602"
       y="177.14867" />
    <rect
       style="fill:#000080;stroke-width:0.264583"
       id="rect1559"
       width="12.878761"
       height="7.8849554"
       x="113.01769"
       y="212.8938" />
    <rect
       style="fill:#000080;stroke-width:0.264583"
       id="rect1561"
       width="12.090265"
       height="8.4106197"
       x="132.20442"
       y="212.36813" />
    <path
       style="fill:#000080;stroke-width:0.264583"
       d="m 140.35221,203.16903 15.50708,-16.29558 -11.30177,30.22566 z"
       id="path1617" />
    <path
       style="fill:#ececec;stroke-width:0.307434"
       id="path1619"
       sodipodi:type="arc"
       sodipodi:cx="124.49598"
       sodipodi:cy="188.86723"
       sodipodi:rx="4.0287986"
       sodipodi:ry="4.0513463"
       sodipodi:start="0"
       sodipodi:end="6.2824551"
       sodipodi:arc-type="slice"
       d="m 128.52478,188.86723 a 4.0287986,4.0513463 0 0 1 -4.02807,4.05135 4.0287986,4.0513463 0 0 1 -4.02953,-4.04987 4.0287986,4.0513463 0 0 1 4.02659,-4.05282 4.0287986,4.0513463 0 0 1 4.03101,4.04838 l -4.0288,0.003 z" />
    <path
       style="fill:#ececec;stroke-width:0.307434"
       id="path1619-3"
       sodipodi:type="arc"
       sodipodi:cx="130.28099"
       sodipodi:cy="188.82379"
       sodipodi:rx="4.0287986"
       sodipodi:ry="4.0513463"
       sodipodi:start="0"
       sodipodi:end="6.2824551"
       sodipodi:arc-type="slice"
       d="m 134.30979,188.82379 a 4.0287986,4.0513463 0 0 1 -4.02806,4.05135 4.0287986,4.0513463 0 0 1 -4.02954,-4.04987 4.0287986,4.0513463 0 0 1 4.02659,-4.05282 4.0287986,4.0513463 0 0 1 4.03101,4.04838 l -4.0288,0.003 z" />
    <path
       style="fill:#000000;stroke-width:0.264583"
       id="path1695"
       sodipodi:type="arc"
       sodipodi:cx="124.65902"
       sodipodi:cy="189.28841"
       sodipodi:rx="0.97571349"
       sodipodi:ry="1.022176"
       sodipodi:start="0"
       sodipodi:end="6.2824551"
       sodipodi:arc-type="slice"
       d="m 125.63473,189.28841 a 0.97571349,1.022176 0 0 1 -0.97553,1.02217 0.97571349,1.022176 0 0 1 -0.97589,-1.0218 0.97571349,1.022176 0 0 1 0.97518,-1.02255 0.97571349,1.022176 0 0 1 0.97624,1.02143 l -0.97571,7.5e-4 z" />
    <path
       style="fill:#000000;stroke-width:0.264583"
       id="path1695-5"
       sodipodi:type="arc"
       sodipodi:cx="130.65268"
       sodipodi:cy="189.1955"
       sodipodi:rx="0.97571349"
       sodipodi:ry="1.022176"
       sodipodi:start="0"
       sodipodi:end="6.2824551"
       sodipodi:arc-type="slice"
       d="m 131.62839,189.1955 a 0.97571349,1.022176 0 0 1 -0.97553,1.02217 0.97571349,1.022176 0 0 1 -0.97589,-1.0218 0.97571349,1.022176 0 0 1 0.97518,-1.02255 0.97571349,1.022176 0 0 1 0.97624,1.02143 l -0.97571,7.5e-4 z" />
    <rect
       style="fill:#000000;stroke-width:0.264583"
       id="rect1823"
       width="7.8849554"
       height="17.609735"
       x="178.46283"
       y="232.86902" />
    <rect
       style="fill:#000000;stroke-width:0.264583"
       id="rect1825"
       width="27.597342"
       height="10.513274"
       x="132.20442"
       y="258.62653" />
    <path
       style="fill:#000000;stroke-width:0.264583"
       id="path1827"
       sodipodi:type="arc"
       sodipodi:cx="75.695572"
       sodipodi:cy="281.23007"
       sodipodi:rx="13.141593"
       sodipodi:ry="9.9876108"
       sodipodi:start="0"
       sodipodi:end="6.2824551"
       sodipodi:arc-type="slice"
       d="m 88.837165,281.23007 a 13.141593,9.9876108 0 0 1 -13.139194,9.98761 13.141593,9.9876108 0 0 1 -13.143991,-9.98396 13.141593,9.9876108 0 0 1 13.134395,-9.99126 13.141593,9.9876108 0 0 1 13.148786,9.98032 l -13.141589,0.007 z" />
    <path
       style="fill:#e6e6e6;stroke-width:0.264583"
       id="path1829"
       sodipodi:type="arc"
       sodipodi:cx="76.615486"
       sodipodi:cy="275.57919"
       sodipodi:rx="10.381859"
       sodipodi:ry="8.0163717"
       sodipodi:start="0"
       sodipodi:end="6.2824551"
       sodipodi:arc-type="slice"
       d="m 86.997345,275.57919 a 10.381859,8.0163717 0 0 1 -10.379964,8.01637 10.381859,8.0163717 0 0 1 -10.383753,-8.01344 10.381859,8.0163717 0 0 1 10.376172,-8.0193 10.381859,8.0163717 0 0 1 10.387542,8.01052 l -10.381856,0.006 z" />
    <path
       style="fill:#000000;stroke-width:0.264583"
       d="m 58.085841,282.01858 14.455751,-0.78849 -9.724779,-13.66726 z"
       id="path1937" />
    <path
       style="fill:#000000;stroke-width:0.264583"
       d="m 81.477876,280.70442 14.455751,0.26284 -11.827434,-12.09027 z"
       id="path1993" />
    <path
       style="fill:#000000;stroke-width:0.264583"
       d="m 158.75044,253.36991 v 20.50088 l 15.76991,-11.5646 z"
       id="path1995" />
    <path
       style="fill:#000000;stroke-width:0.264583"
       d="m 133.25575,254.9469 v 18.92389 l -16.29558,-11.30177 z"
       id="path1997" />
    <path
       style="fill:#000000;stroke-width:0.264583"
       d="m 174.25752,233.65752 c 1.05133,-2.10266 10.51327,-18.92389 10.51327,-18.92389 l 8.67346,21.28938 z"
       id="path1999" />
    <path
       style="fill:#000000;stroke-width:0.264583"
       d="m 176.09734,248.90177 13.93009,4.20531 -5.7823,8.93628 z"
       id="path2001" />
    <rect
       style="fill:#a05a2c;stroke-width:0.309752"
       id="rect2003"
       width="10.768369"
       height="34.818146"
       x="13.667256"
       y="161.37877" />
    <rect
       style="fill:#a05a2c;stroke-width:0.309752"
       id="rect2003-7"
       width="10.768369"
       height="34.818146"
       x="36.617958"
       y="161.3788" />
    <path
       style="fill:#b3b3b3;stroke-width:0.264583"
       id="path2241"
       sodipodi:type="arc"
       sodipodi:cx="18.39917"
       sodipodi:cy="159.45947"
       sodipodi:rx="3.5311534"
       sodipodi:ry="3.3453033"
       sodipodi:start="0"
       sodipodi:end="6.2824551"
       sodipodi:arc-type="slice"
       d="m 21.930323,159.45947 a 3.5311534,3.3453033 0 0 1 -3.530508,3.34531 3.5311534,3.3453033 0 0 1 -3.531798,-3.34409 3.5311534,3.3453033 0 0 1 3.529219,-3.34652 3.5311534,3.3453033 0 0 1 3.533086,3.34286 l -3.531152,0.002 z" />
    <path
       style="fill:#b3b3b3;stroke-width:0.264583"
       id="path2243"
       sodipodi:type="arc"
       sodipodi:cx="23.602974"
       sodipodi:cy="155.55661"
       sodipodi:rx="6.1330562"
       sodipodi:ry="2.7877526"
       sodipodi:start="0"
       sodipodi:end="6.2824551"
       sodipodi:arc-type="slice"
       d="m 29.73603,155.55661 a 6.1330562,2.7877526 0 0 1 -6.131936,2.78775 6.1330562,2.7877526 0 0 1 -6.134176,-2.78673 6.1330562,2.7877526 0 0 1 6.129697,-2.78877 6.1330562,2.7877526 0 0 1 6.136413,2.78571 l -6.133054,0.002 z" />
    <path
       style="fill:#b3b3b3;stroke-width:0.264583"
       id="path2245"
       sodipodi:type="arc"
       sodipodi:cx="33.453033"
       sodipodi:cy="155.9283"
       sodipodi:rx="3.3453033"
       sodipodi:ry="2.0443521"
       sodipodi:start="0"
       sodipodi:end="6.2824551"
       sodipodi:arc-type="slice"
       d="m 36.798337,155.9283 a 3.3453033,2.0443521 0 0 1 -3.344693,2.04435 3.3453033,2.0443521 0 0 1 -3.345914,-2.0436 3.3453033,2.0443521 0 0 1 3.343471,-2.0451 3.3453033,2.0443521 0 0 1 3.347135,2.04286 l -3.345303,0.001 z" />
    <path
       style="fill:#b3b3b3;stroke-width:0.264583"
       id="path2247"
       sodipodi:type="arc"
       sodipodi:cx="38.84269"
       sodipodi:cy="160.01701"
       sodipodi:rx="5.7613559"
       sodipodi:ry="3.1594532"
       sodipodi:start="0"
       sodipodi:end="6.2824551"
       sodipodi:arc-type="slice"
       d="m 44.604045,160.01701 a 5.7613559,3.1594532 0 0 1 -5.760304,3.15946 5.7613559,3.1594532 0 0 1 -5.762407,-3.1583 5.7613559,3.1594532 0 0 1 5.7582,-3.16061 5.7613559,3.1594532 0 0 1 5.76451,3.15715 l -5.761354,0.002 z" />
    <rect
       style="fill:#ff0000;stroke-width:0.264583"
       id="rect2249"
       width="26.283186"
       height="28.911505"
       x="169.78938"
       y="162.95575"
       ry="0.11114132" />
    <rect
       style="fill:#ff0000;stroke-width:0.264583"
       id="rect2251"
       width="6.5047569"
       height="11.336862"
       x="196.6295"
       y="162.99062"
       ry="0.11114132" />
    <rect
       style="fill:#800000;stroke-width:0.264583"
       id="rect2253"
       width="35.683235"
       height="15.053865"
       x="168.19441"
       y="147.3792"
       ry="0.11114132" />
    <rect
       style="fill:#800000;stroke-width:0.264583"
       id="rect2307"
       width="27.597342"
       height="86.47168"
       x="172.15486"
       y="61.239822"
       ry="0.11114132" />
    <path
       style="fill:#ffffff;stroke-width:0.264583"
       d="m 177.4115,90.939823 10.51328,-10.513275 5.7823,14.718583 z"
       id="path2363" />
    <text
       xml:space="preserve"
       style="font-size:9.87777px;text-align:center;text-anchor:middle;fill:#ffff00;stroke-width:0.264583"
       x="165.05841"
       y="94.619469"
       id="text2421"><tspan
         sodipodi:role="line"
         id="tspan2419"
         style="fill:#ffff00;stroke-width:0.264583"
         x="165.05841"
         y="94.619469">Cooking Windows</tspan></text>
  </g>
</svg>
