<?xml version="1.0" encoding="UTF-8" standalone="no"?>
<!-- Created with Inkscape (http://www.inkscape.org/) -->

<svg
   width="210mm"
   height="297mm"
   viewBox="0 0 210 297"
   version="1.1"
   id="svg2537"
   inkscape:version="1.2.1 (9c6d41e410, 2022-07-14)"
   sodipodi:docname="2.svg"
   xmlns:inkscape="http://www.inkscape.org/namespaces/inkscape"
   xmlns:sodipodi="http://sodipodi.sourceforge.net/DTD/sodipodi-0.dtd"
   xmlns="http://www.w3.org/2000/svg"
   xmlns:svg="http://www.w3.org/2000/svg">
  <sodipodi:namedview
     id="namedview2539"
     pagecolor="#ffffff"
     bordercolor="#000000"
     borderopacity="0.25"
     inkscape:showpageshadow="2"
     inkscape:pageopacity="0.0"
     inkscape:pagecheckerboard="0"
     inkscape:deskcolor="#d1d1d1"
     inkscape:document-units="mm"
     showgrid="false"
     inkscape:zoom="1.0066639"
     inkscape:cx="179.30514"
     inkscape:cy="279.13985"
     inkscape:window-width="1366"
     inkscape:window-height="745"
     inkscape:window-x="-8"
     inkscape:window-y="-8"
     inkscape:window-maximized="1"
     inkscape:current-layer="layer2" />
  <defs
     id="defs2534" />
  <g
     inkscape:groupmode="layer"
     id="layer2"
     inkscape:label="Слой 2">
    <path
       style="fill:#008000;stroke-width:0.264583"
       d="m 126.68495,131.94159 c 11.03894,-7.35929 18.9239,-7.88495 15.24425,-21.55221 -3.67964,-13.667258 -14.19292,-31.014159 -27.86017,-20.500885 -13.66726,10.513275 -14.192924,19.449555 -19.449562,28.385835 -5.256636,8.93629 5.782302,13.66726 9.461942,16.29558 3.67965,2.62832 22.60354,-2.62832 22.60354,-2.62832 z"
       id="path2707" />
    <rect
       style="fill:#000000;stroke-width:0.264583"
       id="rect2765"
       width="9.9876108"
       height="57.297344"
       x="25.231857"
       y="69.913269"
       ry="0.11114132" />
    <path
       style="fill:#784421;stroke-width:0.264583"
       d="M 42.053097,51.515044 74.118583,79.900885 79.375221,72.015929 48.886726,44.155751 Z"
       id="path2767" />
    <path
       style="fill:#d38d5f;stroke-width:0.264583"
       d="M 65.707963,57.297343 C 67.81062,55.720352 103.03009,19.449557 103.03009,19.449557 l -3.679648,9.987611 z"
       id="path2823" />
    <path
       style="fill:#784421;stroke-width:0.264583"
       d="m 199.75221,63.605309 c 0,0 -25.23186,-5.256636 -27.86018,-5.256636 -2.62832,0 -35.21947,18.398228 -35.21947,18.398228 l 0.52567,15.769912 20.50088,32.065487 28.38584,18.39823 z"
       id="path2879" />
    <path
       style="fill:#c87137;stroke-width:0.264583"
       d="m 195.5469,74.644246 c 0,0 -13.66726,-1.051327 -22.07787,7.359293 -8.41062,8.41062 -2.62833,8.41062 -11.03894,14.718583 -8.41062,6.307968 -5.25664,14.192918 -5.25664,18.923898 0,4.73097 14.19292,11.03893 14.19292,11.03893 0,0 19.44956,-6.83362 20.50088,-10.51327 1.05133,-3.67965 3.67965,-41.527434 3.67965,-41.527434 z"
       id="path2881" />
    <path
       style="fill:#c87137;stroke-width:0.264583"
       id="path2989"
       sodipodi:type="arc"
       sodipodi:cx="68.073456"
       sodipodi:cy="234.97168"
       sodipodi:rx="22.340708"
       sodipodi:ry="28.385838"
       sodipodi:start="0"
       sodipodi:end="6.2824551"
       sodipodi:arc-type="slice"
       d="m 90.414164,234.97168 a 22.340708,28.385838 0 0 1 -22.33663,28.38584 22.340708,28.385838 0 0 1 -22.344784,-28.37548 22.340708,28.385838 0 0 1 22.328471,-28.39619 22.340708,28.385838 0 0 1 22.352937,28.3651 l -22.340702,0.0207 z" />
    <path
       style="fill:#c87137;stroke-width:0.264583"
       d="m 67.091916,263.25679 -8.734956,8.73495 17.748691,0.55756 z"
       id="path3045" />
    <path
       style="fill:#000000;stroke-width:0.264583"
       d="m 19.975221,244.95929 18.398231,15.76991 -7.884957,9.46195 -15.769911,-17.34691 z"
       id="path3047" />
    <path
       style="fill:#000000;stroke-width:0.264583"
       d="M 42.57876,256.52389 23.654867,274.92211 H 47.835399 Z"
       id="path3049" />
    <path
       style="fill:#000000;stroke-width:0.264583"
       d="m 55.194689,279.6531 25.757523,-1.05132 1.051327,11.03891 -27.860177,-1.57697 z"
       id="path3051" />
    <path
       style="fill:#ff2a2a;stroke-width:0.264583"
       d="m 93.042477,263.35752 -1.576991,18.92389 12.090264,-1.05132 -1.57699,-21.02655 z"
       id="path3053" />
    <path
       style="fill:#aa0000;stroke-width:0.264583"
       d="m 94.619468,287.53805 h 9.461942 l -3.67964,7.88495 -10.513275,-2.62831 z"
       id="path3055" />
    <rect
       style="fill:#ff2a2a;stroke-width:0.340891"
       id="rect3109"
       width="13.667256"
       height="43.630089"
       x="15.244247"
       y="155.59645"
       ry="0.18449458" />
    <rect
       style="fill:#800000;stroke-width:0.264583"
       id="rect3111"
       width="19.975222"
       height="7.359292"
       x="11.038938"
       y="198.17522"
       ry="0.11114132" />
    <rect
       style="fill:#ff2a2a;stroke-width:0.264583"
       id="rect3113"
       width="16.821239"
       height="19.975222"
       x="12.090265"
       y="205.53452"
       ry="0.11114132" />
    <rect
       style="fill:#d40000;stroke-width:0.264583"
       id="rect3115"
       width="3.9424777"
       height="7.0964599"
       x="28.911505"
       y="206.32301"
       ry="0.11114132" />
    <path
       style="fill:#c87137;fill-opacity:0.933333;stroke-width:0.264583"
       d="m 17.346903,170.57787 4.468141,-5.51946 2.89115,6.04513 z"
       id="path3499" />
    <text
       xml:space="preserve"
       style="font-size:9.87777px;text-align:center;text-anchor:middle;fill:#000080;fill-opacity:0.933333;stroke-width:0.264583"
       x="39.424778"
       y="181.09114"
       id="text3555"><tspan
         sodipodi:role="line"
         id="tspan3553"
         style="stroke-width:0.264583;fill:#000080"
         x="39.424778"
         y="181.09114">Cooking windows</tspan></text>
    <path
       style="fill:#c87137;stroke-width:0.264583"
       id="path2989-1"
       sodipodi:type="arc"
       sodipodi:cx="138.24957"
       sodipodi:cy="221.96516"
       sodipodi:rx="22.340708"
       sodipodi:ry="28.385838"
       sodipodi:start="0"
       sodipodi:end="6.2824551"
       sodipodi:arc-type="slice"
       d="m 160.59028,221.96516 a 22.340708,28.385838 0 0 1 -22.33663,28.38584 22.340708,28.385838 0 0 1 -22.34478,-28.37547 22.340708,28.385838 0 0 1 22.32847,-28.3962 22.340708,28.385838 0 0 1 22.35293,28.36511 l -22.3407,0.0207 z" />
    <path
       style="fill:#c87137;stroke-width:0.264583"
       d="m 137.26803,250.25028 -8.73496,8.73495 17.74869,0.55756 z"
       id="path3045-3" />
    <path
       style="fill:#6c5353;fill-opacity:0.933333;stroke-width:0.264583"
       d="m 34.693804,71.227433 c 0,0 78.061066,14.981415 78.061066,13.930088 0,-1.051328 -4.46815,3.679647 -4.46815,3.679647 z"
       id="path3983" />
    <path
       style="fill:#a05a2c;fill-opacity:0.933333;stroke-width:0.264583"
       d="m 88.837168,106.18407 12.878762,-4.73097 0.78849,3.94247 -14.981413,6.83363 z"
       id="path4039" />
    <path
       style="fill:#ac9393;fill-opacity:0.933333;stroke-width:0.264583"
       d="M 94.619468,105.13274 C 93.56814,100.6646 86.208848,82.792034 86.208848,82.792034 l -3.416814,1.314159 z"
       id="path4095" />
    <path
       style="fill:#ff0000;fill-opacity:0.933333;stroke-width:0.264583"
       d="m 149.55132,168.73805 c -2.10265,-4.20531 2.10266,-11.03894 6.04514,-13.93009 3.94248,-2.89115 11.82743,-3.15398 19.44956,-0.52566 7.62212,2.62832 11.30177,4.73097 18.66106,1.57699 7.35929,-3.15398 11.82743,2.89115 12.61593,8.41062 0.78849,5.51947 -0.26284,19.18673 -8.67345,18.39823 -8.41062,-0.7885 -15.50708,-0.7885 -21.81505,-1.83982 -6.30796,-1.05133 -18.39823,-3.94248 -19.18672,-6.30797 -0.7885,-2.36548 -7.09647,-5.7823 -7.09647,-5.7823 z"
       id="path4151" />
    <path
       style="fill:#ff0000;fill-opacity:0.933333;stroke-width:0.264583"
       d="m 148.23717,161.64159 v 10.25044 l -6.83363,3.94248 1.57699,-17.60973 z"
       id="path4207" />
    <text
       xml:space="preserve"
       style="font-size:9.87777px;text-align:center;text-anchor:middle;fill:#ff0000;fill-opacity:0.933333;stroke-width:0.264583"
       x="139.03806"
       y="28.648672"
       id="text4263"><tspan
         sodipodi:role="line"
         id="tspan4261"
         style="stroke-width:0.264583"
         x="139.03806"
         y="28.648672">Unreal Engering</tspan></text>
  </g>
  <g
     inkscape:label="Слой 1"
     inkscape:groupmode="layer"
     id="layer1">
    <path
       style="fill:#803300;stroke-width:0.264583"
       d="m 26.80885,144.03186 c 9.987611,-36.79646 16.821237,-33.11682 26.283184,-44.155754 9.461948,-11.038938 19.449558,-16.82124 28.911505,-1.576993 9.461947,15.244247 -1.051327,58.348677 12.615929,62.553977 13.667252,4.20532 19.449562,6.83363 19.449562,6.83363 l -94.093809,-5.7823 z"
       id="path2595" />
    <path
       style="fill:#aa4400;stroke-width:0.264583"
       d="m 117.74867,113.54336 -12.61593,50.98938 h 22.60354 z"
       id="path2651" />
    <rect
       style="fill:#000080;fill-opacity:0.933333;stroke-width:0.264583"
       id="rect3711"
       width="75.432739"
       height="37.322124"
       x="130.89026"
       y="200.27788"
       ry="0.18449457" />
    <path
       style="fill:#00ffff;fill-opacity:0.933333;stroke-width:0.264583"
       id="path3765"
       sodipodi:type="arc"
       sodipodi:cx="152.83673"
       sodipodi:cy="223.14424"
       sodipodi:rx="12.221681"
       sodipodi:ry="10.513274"
       sodipodi:start="0"
       sodipodi:end="6.2824551"
       sodipodi:arc-type="slice"
       d="m 165.05841,223.14424 a 12.221681,10.513274 0 0 1 -12.21945,10.51328 12.221681,10.513274 0 0 1 -12.22391,-10.50944 12.221681,10.513274 0 0 1 12.21499,-10.51711 12.221681,10.513274 0 0 1 12.22837,10.50559 l -12.22168,0.008 z" />
    <path
       style="fill:#00ffff;fill-opacity:0.933333;stroke-width:0.264583"
       id="path3765-0"
       sodipodi:type="arc"
       sodipodi:cx="180.56548"
       sodipodi:cy="223.14426"
       sodipodi:rx="12.221681"
       sodipodi:ry="10.513274"
       sodipodi:start="0"
       sodipodi:end="6.2824551"
       sodipodi:arc-type="slice"
       d="m 192.78716,223.14426 a 12.221681,10.513274 0 0 1 -12.21945,10.51327 12.221681,10.513274 0 0 1 -12.22391,-10.50943 12.221681,10.513274 0 0 1 12.21498,-10.51712 12.221681,10.513274 0 0 1 12.22837,10.5056 l -12.22167,0.008 z" />
    <path
       style="fill:#000000;fill-opacity:0.933333;stroke-width:0.264583"
       id="path3893"
       sodipodi:type="arc"
       sodipodi:cx="152.96812"
       sodipodi:cy="225.50974"
       sodipodi:rx="3.4168141"
       sodipodi:ry="3.4168141"
       sodipodi:start="0"
       sodipodi:end="6.2824551"
       sodipodi:arc-type="slice"
       d="m 156.38494,225.50974 a 3.4168141,3.4168141 0 0 1 -3.41619,3.41681 3.4168141,3.4168141 0 0 1 -3.41744,-3.41557 3.4168141,3.4168141 0 0 1 3.41494,-3.41806 3.4168141,3.4168141 0 0 1 3.41869,3.41432 l -3.41682,0.002 z" />
    <path
       style="fill:#000000;fill-opacity:0.933333;stroke-width:0.264583"
       id="path3895"
       sodipodi:type="arc"
       sodipodi:cx="180.17123"
       sodipodi:cy="224.98407"
       sodipodi:rx="3.5482299"
       sodipodi:ry="3.4168141"
       sodipodi:start="0"
       sodipodi:end="6.2824551"
       sodipodi:arc-type="slice"
       d="m 183.71946,224.98407 a 3.5482299,3.4168141 0 0 1 -3.54758,3.41681 3.5482299,3.4168141 0 0 1 -3.54888,-3.41556 3.5482299,3.4168141 0 0 1 3.54629,-3.41806 3.5482299,3.4168141 0 0 1 3.55017,3.41431 l -3.54823,0.002 z" />
  </g>
</svg>
